<?xml version="1.0" encoding="utf-8"?>
<!-- Generator: Adobe Illustrator 25.0.0, SVG Export Plug-In . SVG Version: 6.00 Build 0)  -->
<svg version="1.1" id="Layer_1" xmlns="http://www.w3.org/2000/svg" xmlns:xlink="http://www.w3.org/1999/xlink" x="0px" y="0px"
	 width="300px" height="64px" viewBox="0 0 300 64" enable-background="new 0 0 300 64" xml:space="preserve">
<polygon fill="#04ECFE" points="55.487,20.025 75.242,20.072 75.195,26.627 55.44,26.575 "/>
<path fill="#04ECFE" d="M68.719,49.253l-0.037-15.077l-6.739,0.037v15.04l-6.497,0.037l0.037,6.566l19.766-0.037l-0.037-6.566
	H68.719L68.719,49.253z"/>
<path fill="#04ECFE" d="M86.576,34.202l-0.053,0.026l0.037,21.627l6.913-0.042v-21.59L86.576,34.202L86.576,34.202z"/>
<polygon fill="#04ECFE" points="80.173,19.851 100.028,19.898 99.976,26.575 80.126,26.527 "/>
<path fill="#04ECFE" d="M104.859,49.352l-0.011,6.503h16.712v-6.503H104.859L104.859,49.352z"/>
<polygon fill="#04ECFE" points="104.859,19.972 111.636,20.025 111.583,41.777 104.807,41.73 "/>
<path fill="#04ECFE" d="M127.29,33.125l-0.047,0.037l0.037,22.689l19.566-0.037v-6.634l-12.8-0.053v-9.426l12.8-0.037l-0.037-6.54
	H127.29L127.29,33.125z"/>
<polygon fill="#04ECFE" points="127.29,19.951 146.846,19.998 146.799,26.627 127.243,26.575 "/>
<path fill="#04ECFE" d="M173.955,34.202l-0.047,9.326h-0.026l-15.403-23.656l-6.555,0.037l0.037,35.946l6.813-0.037v-23.54h0.026
	l15.403,23.577l6.555-0.042V34.25L173.955,34.202L173.955,34.202z"/>
<polygon fill="#04ECFE" points="173.955,19.872 180.758,19.925 180.71,26.601 173.908,26.548 "/>
<path fill="#04ECFE" d="M207.967,34.202l-0.047,0.037v9.289h-0.026l-15.403-23.656l-6.55,0.037l0.037,35.946l6.813-0.037v-23.54
	h0.026l15.403,23.577l6.55-0.037V34.25L207.967,34.202L207.967,34.202z"/>
<polygon fill="#04ECFE" points="207.967,19.872 214.77,19.925 214.722,26.601 207.92,26.548 "/>
<path fill="#04ECFE" d="M233.226,49.253l-0.037-15.077l-6.739,0.037v15.04l-6.503,0.037l0.037,6.566l19.766-0.037l-0.037-6.561
	L233.226,49.253L233.226,49.253z"/>
<polygon fill="#04ECFE" points="220,20.025 239.755,20.072 239.703,26.627 219.953,26.575 "/>
<path fill="#04ECFE" d="M274.466,49.179l-6.976,0.026l2.376,6.65l7.002-0.026L274.466,49.179L274.466,49.179z"/>
<path fill="#04ECFE" d="M264.116,19.951h-6.55l-12.927,35.857l0.037,0.053h6.939l9.178-25.454h0.026l4.474,12.58h6.997
	L264.116,19.951z"/>
<polygon fill="#04ECFE" points="282.299,19.972 289.075,20.025 289.023,41.777 282.246,41.73 "/>
<path fill="#04ECFE" d="M299,49.352l-16.754,0.037l0.037,6.466H299V49.352L299,49.352z"/>
<path fill="#04ECFE" d="M36.216,8.328h-9.673V1h-4.899v7.328h-5.415V1H11.33v7.328H1v6.177h30.647l1.314,0.121l1.509,0.452
	l1.183,0.636l1.125,0.92l0.72,0.841l0.836,1.467l0.41,1.293l0.168,1.53l-0.116,1.314l-0.342,1.23l-0.599,1.23l-0.81,1.088
	l-1.025,0.941l-1.204,0.741l-1.519,0.541l-1.651,0.195h-4.936v6.434h4.936l1.409,0.147l1.419,0.447l1.178,0.647l1.12,0.93
	l0.746,0.894l0.704,1.23l0.41,1.172l0.226,1.861l-0.116,1.246l-0.442,1.493l-0.589,1.12l-0.899,1.135l-0.962,0.836l-1.114,0.668
	l-1.482,0.52l-1.609,0.195h-19.03V35.474h8.984v-6.429h-8.984V17.712H1v4.6h3.18l0.463,0.037l0.605,0.173l0.431,0.226l0.457,0.368
	l0.279,0.326l0.242,0.394l0.189,0.494l0.1,0.736v23.682l-0.053,0.531L6.73,49.82l-0.252,0.468l-0.336,0.41l-0.373,0.315
	l-0.452,0.258L4.785,51.46L4.18,51.529H1v4.637h10.33v6.497h4.899v-6.497h5.42v6.497h4.899v-6.497h9.673l3.28-0.405l2.996-1.125
	l2.15-1.377l1.856-1.74l1.419-1.913L49,47.455l0.71-2.429l0.252-2.597l-0.436-3.412l-0.941-2.565l-1.603-2.55l-1.551-1.651
	l2.008-2.26l1.477-2.676l0.762-2.486l0.279-2.749l-0.463-3.522l-0.967-2.56l-1.246-2.04l-1.572-1.787l-2.155-1.693l-2.076-1.041
	L39.17,8.664L36.216,8.328L36.216,8.328z"/>
</svg>
