<svg xmlns="http://www.w3.org/2000/svg" width="101.587" height="102.691" viewBox="0 0 101.587 102.691">
  <g id="Layer_2" data-name="Layer 2">
    <g id="Layer_1-2" data-name="Layer 1">
      <path d="M60.822,88.983S49.034,92.708,43.336,96.02,29.98,90.638,35.776,86.5s13.637-6.831,7.853-13.041-15.512-15.732-20.273-20.7,3.312-13.124,8.28-8.114,11.7,11.426,11.7,11.426,9.413-9.108,15.416-15.11,9.77-.3,12,1.843C72.9,44.862,78.5,50.651,81.108,53.586c3.35,3.77,4.022,10.453-.118,14.593S60.822,88.983,60.822,88.983Z" fill="none" stroke="#fff" stroke-miterlimit="10" stroke-width="4"/>
      <polygon points="71.376 99.829 98.795 71.872 88.042 60.761 60.822 88.983 71.376 99.829" fill="none" stroke="#fff" stroke-miterlimit="10" stroke-width="4"/>
      <path d="M21.987,48.271a12.139,12.139,0,1,1,3.065-3.883" fill="none" stroke="#fff" stroke-miterlimit="10" stroke-width="4"/>
      <line x1="13.835" y1="22.196" x2="13.835" y2="3.675" fill="none" stroke="#fff" stroke-miterlimit="10" stroke-width="4"/>
      <polyline points="5.895 10.874 13.941 2.828 22.281 11.169" fill="none" stroke="#fff" stroke-miterlimit="10" stroke-width="4"/>
      <line x1="13.835" y1="55.471" x2="13.835" y2="73.992" fill="none" stroke="#fff" stroke-miterlimit="10" stroke-width="4"/>
      <polyline points="5.895 66.792 13.941 74.838 22.281 66.498" fill="none" stroke="#fff" stroke-miterlimit="10" stroke-width="4"/>
    </g>
  </g>
</svg>
