<svg xmlns="http://www.w3.org/2000/svg" width="157.505" height="157.505" viewBox="0 0 157.505 157.505">
  <g id="Layer_2" data-name="Layer 2">
    <g id="Layer_1-2" data-name="Layer 1">
      <g>
        <line x1="86.12" y1="71.624" x2="131.263" y2="26.481" fill="none" stroke="#fff" stroke-linecap="round" stroke-linejoin="round" stroke-width="6"/>
        <path d="M140.872,36.09,118.424,58.538a10.192,10.192,0,0,1-14.413,0l-4.8-4.8a10.193,10.193,0,0,1,0-14.414l22.448-22.448" fill="none" stroke="#fff" stroke-linecap="round" stroke-linejoin="round" stroke-width="6"/>
        <rect x="56.031" y="61.842" width="13.325" height="65.884" rx="6.662" transform="translate(85.385 -16.569) rotate(45)" fill="none" stroke="#fff" stroke-linecap="round" stroke-linejoin="round" stroke-width="6"/>
        <path d="M84.646,28.415a16.076,16.076,0,0,1,3.923,6.432l18.164-18.164a30.5,30.5,0,0,0-4.19-5.231h0a30.779,30.779,0,0,0-43.4,0L43.87,26.723,32.3,15.156,24.568,22.89,36.135,34.458,27.58,43.013,16.012,31.445,8.278,39.18,19.846,50.747,3.536,67.058l9.753,9.753,18.34-18.34,7.489-7.489L61.685,28.415a16.284,16.284,0,0,1,22.961,0Z" fill="none" stroke="#fff" stroke-miterlimit="10" stroke-width="5"/>
        <path d="M48.287,75.129,36.7,63.538l-18.34,18.34,7.263,7.263,5.025-5.025a6.176,6.176,0,0,1,8.7-.039Z" fill="none" stroke="#fff" stroke-miterlimit="10" stroke-width="5"/>
        <path d="M133.306,131.628l7.734-7.734-10.258-10.259,15.272-15.272a30.78,30.78,0,0,0,0-43.4h0a30.471,30.471,0,0,0-5.156-4.144L122.726,68.99a16.059,16.059,0,0,1,6.411,3.917,16.283,16.283,0,0,1,0,22.96L99.081,125.923,82.437,109.279l-8.946,8.946,14.66,14.659a6.179,6.179,0,0,1,0,8.738l-5.026,5.026,7.323,7.322,16.31-16.311,10.258,10.259,7.735-7.734-10.259-10.259,8.555-8.555Z" fill="none" stroke="#fff" stroke-miterlimit="10" stroke-width="5"/>
      </g>
    </g>
  </g>
</svg>
