<?xml version="1.0" encoding="utf-8"?>
<!-- Generator: Adobe Illustrator 25.0.0, SVG Export Plug-In . SVG Version: 6.00 Build 0)  -->
<svg version="1.1" xmlns="http://www.w3.org/2000/svg" xmlns:xlink="http://www.w3.org/1999/xlink" x="0px" y="0px" width="487px"
	 height="52px" viewBox="0 0 487 52" enable-background="new 0 0 487 52" xml:space="preserve">
<g>
	<path fill="#67E8FA" d="M0,0.246h9.211c0.047,0,0.188,0.75,0.422,2.25c0.75,4.312,1.125,6.574,1.125,6.785H1.547
		c-0.07,0-0.199-0.726-0.387-2.18C0.645,4.242,0.258,1.957,0,0.246z M33.855,0.246c0.07,0,0.691,1.828,1.863,5.484
		c1.055,3.141,3.984,11.93,8.789,26.367h0.035c0.141-0.961,1.969-11.566,5.484-31.816l0.07-0.035h9.246l0.07,0.035
		c-4.383,25.477-6.785,39.352-7.207,41.625l-1.512,8.824l-0.07,0.035h-9.316c-0.047,0-1.02-2.93-2.918-8.789
		C33,25.805,30.082,17.004,29.637,15.574c-0.047,0-0.914,2.555-2.602,7.664l-9.281,27.527H8.543c-0.07,0-0.293-1.277-0.668-3.832
		c-0.094-0.375-1.617-9.363-4.57-26.965l0.07-0.035h9.176c0.07,0,0.281,1.195,0.633,3.586c0.75,4.219,1.242,7.066,1.477,8.543h0.07
		l9.668-28.863c0.141-0.328,0.48-1.312,1.02-2.953H33.855z"/>
	<path fill="#67E8FA" d="M94.219,0.387h9.562c0.047,0,0.07,0.023,0.07,0.07v50.238c0,0.047-0.023,0.07-0.07,0.07h-9.562
		c-0.047,0-0.07-0.023-0.07-0.07V28.688h-16.84v22.008c0,0.047-0.023,0.07-0.07,0.07h-9.598c-0.047,0-0.07-0.023-0.07-0.07V19.441
		c0-0.047,0.023-0.07,0.07-0.07h26.508V0.457C94.148,0.41,94.171,0.387,94.219,0.387z M67.641,0.387h9.598
		c0.047,0,0.07,0.023,0.07,0.07v8.297c0,0.023-0.023,0.035-0.07,0.035h-9.598c-0.047,0-0.07-0.012-0.07-0.035V0.457
		C67.57,0.41,67.593,0.387,67.641,0.387z"/>
	<path fill="#67E8FA" d="M110.637,0.422h10.23c0.047,0.023,0.375,0.621,0.984,1.793c5.367,10.336,8.168,15.75,8.402,16.242h10.125
		l0.07,0.035c-3.445,6.68-5.25,10.208-5.414,10.582v21.621c0,0.047-0.023,0.07-0.07,0.07h-9.527c-0.047,0-0.07-0.023-0.07-0.07
		V29.039c-0.258-0.609-4.324-8.496-12.199-23.66C111.598,2.379,110.754,0.727,110.637,0.422z M149.66,0.422l0.07,0.035
		c-2.906,5.695-4.512,8.789-4.816,9.281h-10.055l-0.07-0.035c3.164-6.117,4.769-9.211,4.816-9.281H149.66z"/>
	<path fill="#67E8FA" d="M193.254,0.281h8.859c5.836,0,9.996,0.727,12.48,2.18c0.75,0.399,1.559,0.973,2.426,1.723
		c2.719,2.414,4.078,5.461,4.078,9.141c0,3.938-1.723,7.137-5.168,9.598c1.102,0.586,2.074,1.148,2.918,1.688
		c3.938,2.695,5.906,6.516,5.906,11.461c0,4.407-1.77,8.191-5.309,11.355c-1.852,1.454-3.844,2.379-5.977,2.777
		c-1.711,0.375-3.609,0.562-5.695,0.562h-14.52c-0.047,0-0.07-0.023-0.07-0.07V20.109c0-0.047,0.023-0.07,0.07-0.07h11.953
		c3.187,0,5.238-1.09,6.152-3.27c0.281-0.633,0.422-1.371,0.422-2.215c0-2.016-0.891-3.48-2.672-4.395
		c-1.008-0.469-2.203-0.703-3.586-0.703h-12.27c-0.047,0-0.07-0.023-0.07-0.07V0.352C193.184,0.305,193.207,0.281,193.254,0.281z
		 M202.816,28.652V41.59h2.566c4.5,0,7.335-0.703,8.508-2.109c0.961-0.961,1.441-2.215,1.441-3.762c0-2.719-1.243-4.688-3.727-5.906
		c-1.477-0.773-4.008-1.16-7.594-1.16H202.816z"/>
	<path fill="#67E8FA" d="M231.117,0.387h27.703c0.047,0,0.07,0.023,0.07,0.07v9.141c0,0.047-0.023,0.07-0.07,0.07h-27.703
		c-0.047,0-0.07-0.023-0.07-0.07V0.457C231.047,0.41,231.07,0.387,231.117,0.387z M240.258,20.285h9.387
		c0.047,0,0.07,0.023,0.07,0.07v21.129h9.105c0.047,0,0.07,0.023,0.07,0.07v9.141c0,0.047-0.023,0.07-0.07,0.07h-27.703
		c-0.047,0-0.07-0.023-0.07-0.07v-9.141c0-0.047,0.023-0.07,0.07-0.07h9.07V20.355C240.188,20.309,240.21,20.285,240.258,20.285z"/>
	<path fill="#67E8FA" d="M265.535,0.141h27.844c0.047,0,0.07,0.023,0.07,0.07v9.316c0,0.047-0.023,0.07-0.07,0.07h-27.844
		c-0.047,0-0.07-0.023-0.07-0.07V0.211C265.465,0.164,265.488,0.141,265.535,0.141z M274.535,20.32h9.633
		c0.047,0,0.07,0.012,0.07,0.035v30.34c0,0.047-0.023,0.07-0.07,0.07h-9.633c-0.047,0-0.07-0.023-0.07-0.07v-30.34
		C274.465,20.333,274.488,20.32,274.535,20.32z"/>
	<path fill="#67E8FA" d="M325.652,0c6.421,0,12.305,2.122,17.648,6.363c1.172,0.984,2.308,2.098,3.41,3.34
		c-0.047,0.094-2.192,2.145-6.434,6.152h-0.035c-4.383-4.617-9.305-6.926-14.766-6.926c-5.743,0-10.336,2.426-13.781,7.277
		c-1.735,2.719-2.602,5.625-2.602,8.719v0.738c0,4.594,1.57,8.485,4.711,11.672c3.281,3.047,7.23,4.57,11.848,4.57
		c4.312,0,8.098-1.348,11.355-4.043c0.82-0.609,1.898-1.559,3.234-2.848h0.035c0.047,0,2.121,2.145,6.223,6.434v0.035
		c-1.805,1.735-3.293,3.047-4.465,3.938c-2.953,2.109-5.438,3.434-7.453,3.973c-2.719,0.914-5.743,1.371-9.07,1.371
		c-9.094,0-16.16-3.48-21.199-10.441c-2.953-4.242-4.43-9.234-4.43-14.977c0-7.594,2.672-13.816,8.016-18.668
		C313.148,2.227,319.066,0,325.652,0z"/>
	<path fill="#67E8FA" d="M379.23,0.211c8.109,0,14.836,3.493,20.18,10.477c3.141,4.312,4.711,9.305,4.711,14.977
		c0,8.766-3.762,15.809-11.285,21.129c-1.406,0.914-2.825,1.676-4.254,2.285c-2.953,1.125-6.07,1.688-9.352,1.688
		c-9.118,0-16.277-3.996-21.48-11.988c-2.438-4.055-3.656-8.473-3.656-13.254c0-6.398,2.132-12.059,6.398-16.98
		c1.195-1.266,2.25-2.25,3.164-2.953C368.367,2.004,373.558,0.211,379.23,0.211z M363.34,25.312v0.633
		c0,5.719,2.402,10.184,7.207,13.395c2.625,1.711,5.531,2.566,8.719,2.566c5.437,0,9.832-2.449,13.184-7.348
		c1.664-2.672,2.496-5.672,2.496-9c0-5.367-2.122-9.761-6.363-13.184c-2.719-2.132-5.883-3.199-9.492-3.199
		c-5.484,0-9.867,2.355-13.148,7.066C364.207,18.984,363.34,22.008,363.34,25.312z"/>
	<path fill="#67E8FA" d="M410.906,0.387h27.703c0.047,0,0.07,0.023,0.07,0.07v9.141c0,0.047-0.023,0.07-0.07,0.07h-27.703
		c-0.047,0-0.07-0.023-0.07-0.07V0.457C410.836,0.41,410.859,0.387,410.906,0.387z M420.047,20.285h9.387
		c0.047,0,0.07,0.023,0.07,0.07v21.129h9.105c0.047,0,0.07,0.023,0.07,0.07v9.141c0,0.047-0.023,0.07-0.07,0.07h-27.703
		c-0.047,0-0.07-0.023-0.07-0.07v-9.141c0-0.047,0.023-0.07,0.07-0.07h9.07V20.355C419.977,20.309,420,20.285,420.047,20.285z"/>
	<path fill="#67E8FA" d="M445.324,0.176h9.141c0.234,0.329,6.562,10.032,18.984,29.109c1.758,2.672,2.648,4.055,2.672,4.148h0.035
		V20.391c0-0.047,0.023-0.07,0.07-0.07h9.492c0.047,0.023,0.07,0.047,0.07,0.07v30.305c0,0.047-0.023,0.07-0.07,0.07h-9.141
		c-0.656-0.937-6.012-9.128-16.066-24.574c-3.422-5.203-5.286-8.062-5.59-8.578h-0.035v33.082c0,0.047-0.023,0.07-0.07,0.07h-9.492
		c-0.047,0-0.07-0.023-0.07-0.07V0.246C445.254,0.199,445.277,0.176,445.324,0.176z M476.227,0.176h9.492
		c0.047,0,0.07,0.023,0.07,0.07v9.316c0,0.047-0.023,0.07-0.07,0.07h-9.492c-0.047,0-0.07-0.023-0.07-0.07V0.246
		C476.156,0.199,476.179,0.176,476.227,0.176z"/>
</g>
<g>
</g>
<g>
</g>
<g>
</g>
<g>
</g>
<g>
</g>
<g>
</g>
<g>
</g>
<g>
</g>
<g>
</g>
<g>
</g>
<g>
</g>
<g>
</g>
<g>
</g>
<g>
</g>
<g>
</g>
</svg>
