{
    "asset" : {
        "generator" : "Khronos glTF Blender I/O v1.5.9",
        "version" : "2.0"
    },
    "scene" : 0,
    "scenes" : [
        {
            "name" : "Scene",
            "nodes" : [
                0,
                1,
                2
            ]
        }
    ],
    "nodes" : [
        {
            "mesh" : 0,
            "name" : "b",
            "rotation" : [
                0.7071068286895752,
                0,
                0,
                0.7071068286895752
            ],
            "scale" : [
                6,
                6,
                5.999996662139893
            ]
        },
        {
            "mesh" : 1,
            "name" : "circle",
            "rotation" : [
                0.7071068286895752,
                0,
                0,
                0.7071068286895752
            ],
            "scale" : [
                1.086683988571167,
                1,
                1.086683988571167
            ]
        },
        {
            "mesh" : 2,
            "name" : "bttn",
            "rotation" : [
                0.7071068286895752,
                0,
                0,
                0.7071068286895752
            ],
            "scale" : [
                0.9642857313156128,
                0.03333333134651184,
                0.9821428656578064
            ],
            "translation" : [
                0,
                0,
                -0.1572166532278061
            ]
        }
    ],
    "materials" : [
        {
            "doubleSided" : true,
            "emissiveFactor" : [
                0.0048558712005615234,
                1,
                1
            ],
            "name" : "bttn",
            "pbrMetallicRoughness" : {
                "baseColorFactor" : [
                    0.0012139678001403809,
                    0.8387992978096008,
                    0.9911020398139954,
                    1
                ],
                "metallicFactor" : 0
            }
        },
        {
            "alphaMode" : "BLEND",
            "doubleSided" : true,
            "name" : "Material.001",
            "pbrMetallicRoughness" : {
                "baseColorFactor" : [
                    1,
                    1,
                    1,
                    0
                ],
                "metallicFactor" : 0,
                "roughnessFactor" : 0
            }
        }
    ],
    "meshes" : [
        {
            "name" : "Curve",
            "primitives" : [
                {
                    "attributes" : {
                        "POSITION" : 0,
                        "NORMAL" : 1,
                        "TEXCOORD_0" : 2
                    },
                    "indices" : 3,
                    "material" : 0
                }
            ]
        },
        {
            "name" : "Cylinder.001",
            "primitives" : [
                {
                    "attributes" : {
                        "POSITION" : 4,
                        "NORMAL" : 5,
                        "TEXCOORD_0" : 6
                    },
                    "indices" : 7,
                    "material" : 0
                }
            ]
        },
        {
            "name" : "Cylinder.003",
            "primitives" : [
                {
                    "attributes" : {
                        "POSITION" : 8,
                        "NORMAL" : 9,
                        "TEXCOORD_0" : 10
                    },
                    "indices" : 11,
                    "material" : 1
                }
            ]
        }
    ],
    "accessors" : [
        {
            "bufferView" : 0,
            "componentType" : 5126,
            "count" : 378,
            "max" : [
                0.1399330198764801,
                0.025000009685754776,
                0.1654917597770691
            ],
            "min" : [
                -0.12293413281440735,
                -0.024999994784593582,
                -0.1654917597770691
            ],
            "type" : "VEC3"
        },
        {
            "bufferView" : 1,
            "componentType" : 5126,
            "count" : 378,
            "type" : "VEC3"
        },
        {
            "bufferView" : 2,
            "componentType" : 5126,
            "count" : 378,
            "type" : "VEC2"
        },
        {
            "bufferView" : 3,
            "componentType" : 5123,
            "count" : 882,
            "type" : "SCALAR"
        },
        {
            "bufferView" : 4,
            "componentType" : 5126,
            "count" : 264,
            "max" : [
                1.399999976158142,
                0.15000000596046448,
                1.399999976158142
            ],
            "min" : [
                -1.399999976158142,
                -0.15000000596046448,
                -1.399999976158142
            ],
            "type" : "VEC3"
        },
        {
            "bufferView" : 5,
            "componentType" : 5126,
            "count" : 264,
            "type" : "VEC3"
        },
        {
            "bufferView" : 6,
            "componentType" : 5126,
            "count" : 264,
            "type" : "VEC2"
        },
        {
            "bufferView" : 7,
            "componentType" : 5123,
            "count" : 768,
            "type" : "SCALAR"
        },
        {
            "bufferView" : 8,
            "componentType" : 5126,
            "count" : 192,
            "max" : [
                1.399999976158142,
                0.15000000596046448,
                1.399999976158142
            ],
            "min" : [
                -1.399999976158142,
                -0.15000000596046448,
                -1.399999976158142
            ],
            "type" : "VEC3"
        },
        {
            "bufferView" : 9,
            "componentType" : 5126,
            "count" : 192,
            "type" : "VEC3"
        },
        {
            "bufferView" : 10,
            "componentType" : 5126,
            "count" : 192,
            "type" : "VEC2"
        },
        {
            "bufferView" : 11,
            "componentType" : 5123,
            "count" : 372,
            "type" : "SCALAR"
        }
    ],
    "bufferViews" : [
        {
            "buffer" : 0,
            "byteLength" : 4536,
            "byteOffset" : 0
        },
        {
            "buffer" : 0,
            "byteLength" : 4536,
            "byteOffset" : 4536
        },
        {
            "buffer" : 0,
            "byteLength" : 3024,
            "byteOffset" : 9072
        },
        {
            "buffer" : 0,
            "byteLength" : 1764,
            "byteOffset" : 12096
        },
        {
            "buffer" : 0,
            "byteLength" : 3168,
            "byteOffset" : 13860
        },
        {
            "buffer" : 0,
            "byteLength" : 3168,
            "byteOffset" : 17028
        },
        {
            "buffer" : 0,
            "byteLength" : 2112,
            "byteOffset" : 20196
        },
        {
            "buffer" : 0,
            "byteLength" : 1536,
            "byteOffset" : 22308
        },
        {
            "buffer" : 0,
            "byteLength" : 2304,
            "byteOffset" : 23844
        },
        {
            "buffer" : 0,
            "byteLength" : 2304,
            "byteOffset" : 26148
        },
        {
            "buffer" : 0,
            "byteLength" : 1536,
            "byteOffset" : 28452
        },
        {
            "buffer" : 0,
            "byteLength" : 744,
            "byteOffset" : 29988
        }
    ],
    "buffers" : [
        {
            "byteLength" : 30732,
            "uri" : "data:application/octet-stream;base64,"
        }
    ]
}
