{
    "asset" : {
        "generator" : "Khronos glTF Blender I/O v1.5.9",
        "version" : "2.0"
    },
    "scene" : 0,
    "scenes" : [
        {
            "name" : "Scene",
            "nodes" : [
                0
            ]
        }
    ],
    "nodes" : [
        {
            "mesh" : 0,
            "name" : "moon",
            "rotation" : [
                0,
                -0.7071068286895752,
                0,
                0.7071068286895752
            ],
            "scale" : [
                10,
                10,
                10
            ]
        }
    ],
    "materials" : [
        {
            "doubleSided" : true,
            "emissiveFactor" : [
                0.09938658623973406,
                0.014072025031924618,
                0.1826198009046882
            ],
            "name" : "moon",
            "pbrMetallicRoughness" : {
                "baseColorTexture" : {
                    "index" : 0,
                    "texCoord" : 0
                },
                "metallicFactor" : 0,
                "roughnessFactor" : 0.5
            }
        }
    ],
    "meshes" : [
        {
            "name" : "Sphere",
            "primitives" : [
                {
                    "attributes" : {
                        "POSITION" : 0,
                        "NORMAL" : 1,
                        "TEXCOORD_0" : 2
                    },
                    "indices" : 3,
                    "material" : 0
                }
            ]
        }
    ],
    "textures" : [
        {
            "sampler" : 0,
            "source" : 0
        }
    ],
    "images" : [
        {
            "bufferView" : 4,
            "mimeType" : "image/jpeg",
            "name" : "moon"
        }
    ],
    "accessors" : [
        {
            "bufferView" : 0,
            "componentType" : 5126,
            "count" : 840,
            "max" : [
                0.9924198985099792,
                0.9836077094078064,
                0.9800455570220947
            ],
            "min" : [
                -0.988788902759552,
                -0.9831569194793701,
                -0.9809609055519104
            ],
            "type" : "VEC3"
        },
        {
            "bufferView" : 1,
            "componentType" : 5126,
            "count" : 840,
            "type" : "VEC3"
        },
        {
            "bufferView" : 2,
            "componentType" : 5126,
            "count" : 840,
            "type" : "VEC2"
        },
        {
            "bufferView" : 3,
            "componentType" : 5123,
            "count" : 4758,
            "type" : "SCALAR"
        }
    ],
    "bufferViews" : [
        {
            "buffer" : 0,
            "byteLength" : 10080,
            "byteOffset" : 0
        },
        {
            "buffer" : 0,
            "byteLength" : 10080,
            "byteOffset" : 10080
        },
        {
            "buffer" : 0,
            "byteLength" : 6720,
            "byteOffset" : 20160
        },
        {
            "buffer" : 0,
            "byteLength" : 9516,
            "byteOffset" : 26880
        },
        {
            "buffer" : 0,
            "byteLength" : 638444,
            "byteOffset" : 36396
        }
    ],
    "samplers" : [
        {
            "magFilter" : 9729,
            "minFilter" : 9987
        }
    ],
    "buffers" : [
        {
            "byteLength" : 674840,
            "uri" : "data:application/octet-stream;base64,"
        }
    ]
}
